<svg xmlns="http://www.w3.org/2000/svg" width="1800" height="1080" viewBox="0 0 1800 1080">
<defs><marker id="arrow" markerWidth="10" markerHeight="10" refX="9" refY="3" orient="auto" markerUnits="strokeWidth"><path d="M0,0 L0,6 L9,3 z" fill="#555"/></marker></defs>
<rect width="100%" height="100%" fill="white"/>
<text x="900" y="40" text-anchor="middle" font-family="Arial" font-size="34" font-weight="bold">ATC Service Model — Working Architecture Map</text>
<line x1="160.0" y1="125.0" x2="160.0" y2="190.0" stroke="#555" stroke-width="2" marker-end="url(#arrow)"/>
<rect x="80.0" y="143.5" width="160" height="26" fill="white"/>
<text x="160.0" y="162.5" text-anchor="middle" font-family="Arial" font-size="15" fill="#444">uses</text>
<line x1="250.0" y1="230.0" x2="330.0" y2="250.0" stroke="#555" stroke-width="2" marker-end="url(#arrow)"/>
<rect x="210.0" y="226.0" width="160" height="26" fill="white"/>
<text x="290.0" y="245.0" text-anchor="middle" font-family="Arial" font-size="15" fill="#444">REST /api/*</text>
<line x1="250.0" y1="230.0" x2="560.0" y2="250.0" stroke="#555" stroke-width="2" marker-end="url(#arrow)"/>
<rect x="325.0" y="226.0" width="160" height="26" fill="white"/>
<text x="405.0" y="245.0" text-anchor="middle" font-family="Arial" font-size="15" fill="#444">/ws channels</text>
<line x1="485.0" y1="140.0" x2="425.0" y2="210.0" stroke="#555" stroke-width="2" marker-end="url(#arrow)"/>
<rect x="375.0" y="161.0" width="160" height="26" fill="white"/>
<text x="455.0" y="180.0" text-anchor="middle" font-family="Arial" font-size="15" fill="#444">registers</text>
<line x1="590.0" y1="100.0" x2="560.0" y2="250.0" stroke="#555" stroke-width="2" marker-end="url(#arrow)"/>
<rect x="495.0" y="161.0" width="160" height="26" fill="white"/>
<text x="575.0" y="180.0" text-anchor="middle" font-family="Arial" font-size="15" fill="#444">owns</text>
<line x1="520.0" y1="250.0" x2="870.0" y2="87.5" stroke="#555" stroke-width="2" marker-end="url(#arrow)"/>
<rect x="615.0" y="154.8" width="160" height="26" fill="white"/>
<text x="695.0" y="173.8" text-anchor="middle" font-family="Arial" font-size="15" fill="#444">tower API</text>
<line x1="520.0" y1="250.0" x2="835.0" y2="207.5" stroke="#555" stroke-width="2" marker-end="url(#arrow)"/>
<rect x="597.5" y="214.8" width="160" height="26" fill="white"/>
<text x="677.5" y="233.8" text-anchor="middle" font-family="Arial" font-size="15" fill="#444">normalized API</text>
<line x1="1000.0" y1="165.0" x2="995.0" y2="130.0" stroke="#555" stroke-width="2" marker-end="url(#arrow)"/>
<rect x="917.5" y="133.5" width="160" height="26" fill="white"/>
<text x="997.5" y="152.5" text-anchor="middle" font-family="Arial" font-size="15" fill="#444">spawn leader</text>
<line x1="995.0" y1="130.0" x2="995.0" y2="295.0" stroke="#555" stroke-width="2" marker-end="url(#arrow)"/>
<rect x="915.0" y="198.5" width="160" height="26" fill="white"/>
<text x="995.0" y="217.5" text-anchor="middle" font-family="Arial" font-size="15" fill="#444">delegates</text>
<line x1="995.0" y1="380.0" x2="995.0" y2="430.0" stroke="#555" stroke-width="2" marker-end="url(#arrow)"/>
<rect x="915.0" y="391.0" width="160" height="26" fill="white"/>
<text x="995.0" y="410.0" text-anchor="middle" font-family="Arial" font-size="15" fill="#444">spawns/assigns</text>
<line x1="1165.0" y1="207.5" x2="1280.0" y2="187.5" stroke="#555" stroke-width="2" marker-end="url(#arrow)"/>
<rect x="1142.5" y="183.5" width="160" height="26" fill="white"/>
<text x="1222.5" y="202.5" text-anchor="middle" font-family="Arial" font-size="15" fill="#444">send/inspect</text>
<line x1="1120.0" y1="472.5" x2="1280.0" y2="187.5" stroke="#555" stroke-width="2" marker-end="url(#arrow)"/>
<rect x="1120.0" y="316.0" width="160" height="26" fill="white"/>
<text x="1200.0" y="335.0" text-anchor="middle" font-family="Arial" font-size="15" fill="#444">runtime work</text>
<line x1="1405.0" y1="230.0" x2="1405.0" y2="300.0" stroke="#555" stroke-width="2" marker-end="url(#arrow)"/>
<rect x="1325.0" y="251.0" width="160" height="26" fill="white"/>
<text x="1405.0" y="270.0" text-anchor="middle" font-family="Arial" font-size="15" fill="#444">select provider</text>
<line x1="1405.0" y1="380.0" x2="1307.5" y2="455.0" stroke="#555" stroke-width="2" marker-end="url(#arrow)"/>
<rect x="1276.2" y="403.5" width="160" height="26" fill="white"/>
<text x="1356.2" y="422.5" text-anchor="middle" font-family="Arial" font-size="15" fill="#444">codex</text>
<line x1="1530.0" y1="340.0" x2="1455.0" y2="500.0" stroke="#555" stroke-width="2" marker-end="url(#arrow)"/>
<rect x="1412.5" y="406.0" width="160" height="26" fill="white"/>
<text x="1492.5" y="425.0" text-anchor="middle" font-family="Arial" font-size="15" fill="#444">claude</text>
<line x1="1307.5" y1="545.0" x2="1405.0" y2="625.0" stroke="#555" stroke-width="2" marker-end="url(#arrow)"/>
<rect x="1276.2" y="571.0" width="160" height="26" fill="white"/>
<text x="1356.2" y="590.0" text-anchor="middle" font-family="Arial" font-size="15" fill="#444">provider runtime</text>
<line x1="1455.0" y1="500.0" x2="1530.0" y2="667.5" stroke="#555" stroke-width="2" marker-end="url(#arrow)"/>
<rect x="1412.5" y="569.8" width="160" height="26" fill="white"/>
<text x="1492.5" y="588.8" text-anchor="middle" font-family="Arial" font-size="15" fill="#444">provider runtime</text>
<line x1="1405.0" y1="710.0" x2="1405.0" y2="775.0" stroke="#555" stroke-width="2" marker-end="url(#arrow)"/>
<rect x="1325.0" y="728.5" width="160" height="26" fill="white"/>
<text x="1405.0" y="747.5" text-anchor="middle" font-family="Arial" font-size="15" fill="#444">spawn/capture/write</text>
<line x1="1405.0" y1="860.0" x2="1405.0" y2="920.0" stroke="#555" stroke-width="2" marker-end="url(#arrow)"/>
<rect x="1325.0" y="876.0" width="160" height="26" fill="white"/>
<text x="1405.0" y="895.0" text-anchor="middle" font-family="Arial" font-size="15" fill="#444">controls</text>
<line x1="1280.0" y1="962.5" x2="1135.0" y2="667.5" stroke="#555" stroke-width="2" marker-end="url(#arrow)"/>
<rect x="1127.5" y="801.0" width="160" height="26" fill="white"/>
<text x="1207.5" y="820.0" text-anchor="middle" font-family="Arial" font-size="15" fill="#444">output</text>
<line x1="845.0" y1="667.5" x2="770.0" y2="667.5" stroke="#555" stroke-width="2" marker-end="url(#arrow)"/>
<rect x="727.5" y="653.5" width="160" height="26" fill="white"/>
<text x="807.5" y="672.5" text-anchor="middle" font-family="Arial" font-size="15" fill="#444">pty_output</text>
<line x1="645.0" y1="625.0" x2="655.0" y2="290.0" stroke="#555" stroke-width="2" marker-end="url(#arrow)"/>
<rect x="570.0" y="443.5" width="160" height="26" fill="white"/>
<text x="650.0" y="462.5" text-anchor="middle" font-family="Arial" font-size="15" fill="#444">broadcast</text>
<line x1="560.0" y1="250.0" x2="250.0" y2="230.0" stroke="#555" stroke-width="2" marker-end="url(#arrow)"/>
<rect x="325.0" y="226.0" width="160" height="26" fill="white"/>
<text x="405.0" y="245.0" text-anchor="middle" font-family="Arial" font-size="15" fill="#444">live state/terminal</text>
<line x1="995.0" y1="130.0" x2="650.0" y2="840.0" stroke="#555" stroke-width="2" marker-end="url(#arrow)"/>
<rect x="742.5" y="471.0" width="160" height="26" fill="white"/>
<text x="822.5" y="490.0" text-anchor="middle" font-family="Arial" font-size="15" fill="#444">read/write</text>
<line x1="995.0" y1="380.0" x2="650.0" y2="840.0" stroke="#555" stroke-width="2" marker-end="url(#arrow)"/>
<rect x="742.5" y="596.0" width="160" height="26" fill="white"/>
<text x="822.5" y="615.0" text-anchor="middle" font-family="Arial" font-size="15" fill="#444">task graph</text>
<line x1="995.0" y1="515.0" x2="650.0" y2="840.0" stroke="#555" stroke-width="2" marker-end="url(#arrow)"/>
<rect x="742.5" y="663.5" width="160" height="26" fill="white"/>
<text x="822.5" y="682.5" text-anchor="middle" font-family="Arial" font-size="15" fill="#444">sessions/tasks</text>
<line x1="1280.0" y1="187.5" x2="790.0" y2="885.0" stroke="#555" stroke-width="2" marker-end="url(#arrow)"/>
<rect x="955.0" y="522.2" width="160" height="26" fill="white"/>
<text x="1035.0" y="541.2" text-anchor="middle" font-family="Arial" font-size="15" fill="#444">delivery trace</text>
<line x1="790.0" y1="885.0" x2="845.0" y2="885.0" stroke="#555" stroke-width="2" marker-end="url(#arrow)"/>
<rect x="737.5" y="871.0" width="160" height="26" fill="white"/>
<text x="817.5" y="890.0" text-anchor="middle" font-family="Arial" font-size="15" fill="#444">guarded updates</text>
<line x1="285.0" y1="557.5" x2="510.0" y2="885.0" stroke="#555" stroke-width="2" marker-end="url(#arrow)"/>
<rect x="317.5" y="707.2" width="160" height="26" fill="white"/>
<text x="397.5" y="726.2" text-anchor="middle" font-family="Arial" font-size="15" fill="#444">usage/resources</text>
<line x1="285.0" y1="667.5" x2="510.0" y2="885.0" stroke="#555" stroke-width="2" marker-end="url(#arrow)"/>
<rect x="317.5" y="762.2" width="160" height="26" fill="white"/>
<text x="397.5" y="781.2" text-anchor="middle" font-family="Arial" font-size="15" fill="#444">context/memory</text>
<line x1="180.0" y1="740.0" x2="425.0" y2="290.0" stroke="#555" stroke-width="2" marker-end="url(#arrow)"/>
<rect x="222.5" y="501.0" width="160" height="26" fill="white"/>
<text x="302.5" y="520.0" text-anchor="middle" font-family="Arial" font-size="15" fill="#444">service APIs</text>
<rect x="70" y="60" width="180" height="65" rx="12" fill="#fff2cc" stroke="#333" stroke-width="2"/>
<text x="160.0" y="92.5" text-anchor="middle" dominant-baseline="middle" font-family="Arial" font-size="20" fill="#111">Operator</text>
<rect x="70" y="190" width="180" height="80" rx="12" fill="#d9eaf7" stroke="#333" stroke-width="2"/>
<text x="160.0" y="230.0" text-anchor="middle" dominant-baseline="middle" font-family="Arial" font-size="20" fill="#111">React / Tauri UI</text>
<rect x="380" y="60" width="210" height="80" rx="12" fill="#d9ead3" stroke="#333" stroke-width="2"/>
<text x="485.0" y="88.0" text-anchor="middle" dominant-baseline="middle" font-family="Arial" font-size="20" fill="#111">FastAPI App</text>
<text x="485.0" y="112.0" text-anchor="middle" dominant-baseline="middle" font-family="Arial" font-size="20" fill="#111">api/app.py</text>
<rect x="330" y="210" width="190" height="80" rx="12" fill="#d9ead3" stroke="#333" stroke-width="2"/>
<text x="425.0" y="238.0" text-anchor="middle" dominant-baseline="middle" font-family="Arial" font-size="20" fill="#111">REST Routers</text>
<text x="425.0" y="262.0" text-anchor="middle" dominant-baseline="middle" font-family="Arial" font-size="20" fill="#111">api/routers/*</text>
<rect x="560" y="210" width="190" height="80" rx="12" fill="#d9ead3" stroke="#333" stroke-width="2"/>
<text x="655.0" y="238.0" text-anchor="middle" dominant-baseline="middle" font-family="Arial" font-size="20" fill="#111">WebSocket Hub</text>
<text x="655.0" y="262.0" text-anchor="middle" dominant-baseline="middle" font-family="Arial" font-size="20" fill="#111">api/ws/*</text>
<rect x="870" y="45" width="250" height="85" rx="12" fill="#fce5cd" stroke="#333" stroke-width="2"/>
<text x="995.0" y="75.5" text-anchor="middle" dominant-baseline="middle" font-family="Arial" font-size="20" fill="#111">TowerController</text>
<text x="995.0" y="99.5" text-anchor="middle" dominant-baseline="middle" font-family="Arial" font-size="20" fill="#111">tower/controller.py</text>
<rect x="835" y="165" width="330" height="85" rx="12" fill="#eadcf8" stroke="#333" stroke-width="2"/>
<text x="1000.0" y="195.5" text-anchor="middle" dominant-baseline="middle" font-family="Arial" font-size="20" fill="#111">OrchestrationService</text>
<text x="1000.0" y="219.5" text-anchor="middle" dominant-baseline="middle" font-family="Arial" font-size="20" fill="#111">orchestration/service.py</text>
<rect x="870" y="295" width="250" height="85" rx="12" fill="#fce5cd" stroke="#333" stroke-width="2"/>
<text x="995.0" y="325.5" text-anchor="middle" dominant-baseline="middle" font-family="Arial" font-size="20" fill="#111">LeaderOrchestrator</text>
<text x="995.0" y="349.5" text-anchor="middle" dominant-baseline="middle" font-family="Arial" font-size="20" fill="#111">leader/orchestrator.py</text>
<rect x="870" y="430" width="250" height="85" rx="12" fill="#fce5cd" stroke="#333" stroke-width="2"/>
<text x="995.0" y="460.5" text-anchor="middle" dominant-baseline="middle" font-family="Arial" font-size="20" fill="#111">Ace Session Service</text>
<text x="995.0" y="484.5" text-anchor="middle" dominant-baseline="middle" font-family="Arial" font-size="20" fill="#111">session/ace.py</text>
<rect x="1280" y="145" width="250" height="85" rx="12" fill="#cfe2f3" stroke="#333" stroke-width="2"/>
<text x="1405.0" y="175.5" text-anchor="middle" dominant-baseline="middle" font-family="Arial" font-size="20" fill="#111">RuntimeService</text>
<text x="1405.0" y="199.5" text-anchor="middle" dominant-baseline="middle" font-family="Arial" font-size="20" fill="#111">runtime/service.py</text>
<rect x="1280" y="300" width="250" height="80" rx="12" fill="#cfe2f3" stroke="#333" stroke-width="2"/>
<text x="1405.0" y="328.0" text-anchor="middle" dominant-baseline="middle" font-family="Arial" font-size="20" fill="#111">Provider Registry</text>
<text x="1405.0" y="352.0" text-anchor="middle" dominant-baseline="middle" font-family="Arial" font-size="20" fill="#111">providers/registry.py</text>
<rect x="1195" y="455" width="225" height="90" rx="12" fill="#cfe2f3" stroke="#333" stroke-width="2"/>
<text x="1307.5" y="488.0" text-anchor="middle" dominant-baseline="middle" font-family="Arial" font-size="20" fill="#111">Codex Runtime</text>
<text x="1307.5" y="512.0" text-anchor="middle" dominant-baseline="middle" font-family="Arial" font-size="20" fill="#111">providers/codex/runtime.py</text>
<rect x="1455" y="455" width="255" height="90" rx="12" fill="#cfe2f3" stroke="#333" stroke-width="2"/>
<text x="1582.5" y="488.0" text-anchor="middle" dominant-baseline="middle" font-family="Arial" font-size="20" fill="#111">Claude Code Runtime</text>
<text x="1582.5" y="512.0" text-anchor="middle" dominant-baseline="middle" font-family="Arial" font-size="20" fill="#111">providers/claude_code/runtime.py</text>
<rect x="1280" y="625" width="250" height="85" rx="12" fill="#d0e0e3" stroke="#333" stroke-width="2"/>
<text x="1405.0" y="655.5" text-anchor="middle" dominant-baseline="middle" font-family="Arial" font-size="20" fill="#111">Tmux Session Runner</text>
<text x="1405.0" y="679.5" text-anchor="middle" dominant-baseline="middle" font-family="Arial" font-size="20" fill="#111">runtime/tmux/runner.py</text>
<rect x="1280" y="775" width="250" height="85" rx="12" fill="#d0e0e3" stroke="#333" stroke-width="2"/>
<text x="1405.0" y="805.5" text-anchor="middle" dominant-baseline="middle" font-family="Arial" font-size="20" fill="#111">Tmux Substrate</text>
<text x="1405.0" y="829.5" text-anchor="middle" dominant-baseline="middle" font-family="Arial" font-size="20" fill="#111">runtime/tmux/substrate.py</text>
<rect x="1280" y="920" width="250" height="85" rx="12" fill="#eeeeee" stroke="#333" stroke-width="2"/>
<text x="1405.0" y="950.5" text-anchor="middle" dominant-baseline="middle" font-family="Arial" font-size="20" fill="#111">tmux panes / CLIs</text>
<text x="1405.0" y="974.5" text-anchor="middle" dominant-baseline="middle" font-family="Arial" font-size="20" fill="#111">Codex, Claude, shells</text>
<rect x="845" y="625" width="290" height="85" rx="12" fill="#d0e0e3" stroke="#333" stroke-width="2"/>
<text x="990.0" y="655.5" text-anchor="middle" dominant-baseline="middle" font-family="Arial" font-size="20" fill="#111">PtyStreamPool</text>
<text x="990.0" y="679.5" text-anchor="middle" dominant-baseline="middle" font-family="Arial" font-size="20" fill="#111">terminal/pty_stream.py</text>
<rect x="520" y="625" width="250" height="85" rx="12" fill="#eeeeee" stroke="#333" stroke-width="2"/>
<text x="645.0" y="655.5" text-anchor="middle" dominant-baseline="middle" font-family="Arial" font-size="20" fill="#111">EventBus / App Events</text>
<text x="645.0" y="679.5" text-anchor="middle" dominant-baseline="middle" font-family="Arial" font-size="20" fill="#111">core/events.py</text>
<rect x="510" y="840" width="280" height="90" rx="12" fill="#f4cccc" stroke="#333" stroke-width="2"/>
<text x="650.0" y="873.0" text-anchor="middle" dominant-baseline="middle" font-family="Arial" font-size="20" fill="#111">SQLite State DB</text>
<text x="650.0" y="897.0" text-anchor="middle" dominant-baseline="middle" font-family="Arial" font-size="20" fill="#111">state/db.py + migrations</text>
<rect x="845" y="840" width="290" height="90" rx="12" fill="#f4cccc" stroke="#333" stroke-width="2"/>
<text x="990.0" y="873.0" text-anchor="middle" dominant-baseline="middle" font-family="Arial" font-size="20" fill="#111">State Transitions</text>
<text x="990.0" y="897.0" text-anchor="middle" dominant-baseline="middle" font-family="Arial" font-size="20" fill="#111">state/transitions.py</text>
<rect x="75" y="520" width="210" height="75" rx="12" fill="#eeeeee" stroke="#333" stroke-width="2"/>
<text x="180.0" y="545.5" text-anchor="middle" dominant-baseline="middle" font-family="Arial" font-size="20" fill="#111">Tracking Services</text>
<text x="180.0" y="569.5" text-anchor="middle" dominant-baseline="middle" font-family="Arial" font-size="20" fill="#111">tracking/*</text>
<rect x="75" y="630" width="210" height="75" rx="12" fill="#eeeeee" stroke="#333" stroke-width="2"/>
<text x="180.0" y="655.5" text-anchor="middle" dominant-baseline="middle" font-family="Arial" font-size="20" fill="#111">Memory Services</text>
<text x="180.0" y="679.5" text-anchor="middle" dominant-baseline="middle" font-family="Arial" font-size="20" fill="#111">memory/*</text>
<rect x="75" y="740" width="210" height="85" rx="12" fill="#eeeeee" stroke="#333" stroke-width="2"/>
<text x="180.0" y="770.5" text-anchor="middle" dominant-baseline="middle" font-family="Arial" font-size="20" fill="#111">Backup / QA / MCP</text>
<text x="180.0" y="794.5" text-anchor="middle" dominant-baseline="middle" font-family="Arial" font-size="20" fill="#111">backup/* qa/* mcp/*</text>
<text x="70" y="1030" font-family="Arial" font-size="15" fill="#333">Operator flow: User → Tower → Leader → Ace. Runtime flow: domain services → RuntimeService → provider runtime → tmux runner/substrate → tmux panes.</text>
<text x="70" y="1052" font-family="Arial" font-size="15" fill="#333">State truth: SQLite + explicit transitions. Realtime truth: EventBus + WebSocket channels. UI reflects backend/runtime truth.</text>
</svg>